<?xml version="1.0" standalone="no"?>
<!DOCTYPE svg PUBLIC "-//W3C//DTD SVG 20010904//EN"
 "http://www.w3.org/TR/2001/REC-SVG-20010904/DTD/svg10.dtd">
<svg version="1.0" xmlns="http://www.w3.org/2000/svg"
 width="340.000000pt" height="296.000000pt" viewBox="0 0 340.000000 296.000000"
 preserveAspectRatio="xMidYMid meet">

<g transform="translate(0.000000,296.000000) scale(0.100000,-0.100000)"
fill="#000000" stroke="none">
<path d="M1660 1730 l0 -81 -32 17 c-74 38 -158 -8 -178 -99 -21 -101 27 -215
94 -218 38 -2 71 3 91 13 13 8 20 8 23 -1 2 -6 17 -11 33 -11 l29 0 -2 228 -3
227 -27 3 -28 3 0 -81z m-26 -121 c24 -19 26 -26 26 -95 0 -87 -17 -114 -74
-114 -62 0 -101 81 -77 161 20 66 75 88 125 48z"/>
<path d="M1800 1581 l0 -231 25 0 c16 0 25 6 25 16 0 15 2 15 26 -1 35 -22
106 -22 138 2 69 50 76 222 12 282 -31 30 -95 38 -135 18 l-30 -15 -3 76 c-3
76 -3 77 -30 80 l-28 3 0 -230z m180 29 c11 -11 22 -31 26 -45 10 -42 -1 -123
-21 -145 -22 -24 -72 -26 -103 -4 -20 13 -22 24 -22 94 0 73 2 80 26 99 34 26
68 27 94 1z"/>
<path d="M422 1758 c3 -22 7 -23 115 -26 l112 -3 -114 -164 c-74 -105 -115
-173 -115 -189 l0 -26 160 0 160 0 0 25 0 25 -120 0 c-66 0 -120 3 -120 6 0 3
29 47 63 97 35 51 87 126 115 167 79 113 81 110 -104 110 l-155 0 3 -22z"/>
<path d="M852 1663 c-32 -16 -67 -64 -55 -77 14 -14 47 -5 69 19 42 45 114 26
114 -31 0 -21 -4 -24 -37 -24 -97 0 -153 -41 -153 -112 0 -77 88 -116 169 -75
19 9 25 9 28 0 3 -7 17 -13 32 -13 l27 0 -4 133 c-2 72 -9 140 -14 150 -22 43
-117 59 -176 30z m128 -197 c0 -25 -7 -39 -22 -50 -42 -30 -108 -14 -108 26 0
38 28 58 82 58 l48 0 0 -34z"/>
<path d="M1230 1673 c-8 -3 -23 -12 -32 -21 -16 -14 -18 -13 -18 1 0 12 -9 17
-30 17 l-30 0 0 -160 0 -160 30 0 30 0 0 115 c0 110 1 117 25 140 29 30 68 32
95 5 18 -18 20 -33 20 -140 l0 -120 30 0 30 0 0 120 c0 137 -13 184 -55 200
-28 11 -70 12 -95 3z"/>
<path d="M2204 1666 c-50 -23 -79 -79 -79 -156 0 -119 52 -166 177 -161 15 1
42 14 60 30 32 29 33 30 13 45 -18 13 -22 13 -42 -6 -31 -29 -87 -28 -118 3
-13 13 -26 35 -27 49 l-3 25 108 3 c105 3 107 3 103 25 -3 12 -7 38 -11 58
-12 75 -105 120 -181 85z m98 -50 c20 -14 40 -61 31 -70 -4 -3 -37 -6 -75 -6
-62 0 -68 2 -68 20 0 28 44 70 72 70 13 0 31 -6 40 -14z"/>
<path d="M2538 1666 c-16 -9 -28 -10 -28 -5 0 6 -12 9 -27 7 l-28 -3 -3 -157
-3 -158 31 0 30 0 0 115 c0 102 2 117 20 135 11 11 33 20 50 20 27 0 30 3 30
30 0 24 -4 30 -22 30 -13 0 -35 -7 -50 -14z"/>
<path d="M2704 1661 c-81 -49 -87 -228 -9 -289 30 -24 101 -30 136 -12 16 9
19 7 19 -15 0 -59 -88 -88 -142 -45 -19 14 -28 16 -36 8 -20 -20 -13 -37 21
-58 39 -24 116 -26 157 -5 53 28 60 55 60 250 l0 175 -24 0 c-13 0 -26 -5 -28
-11 -2 -6 -14 -5 -33 5 -40 21 -83 20 -121 -3z m133 -52 c9 -8 13 -37 13 -95
0 -74 -2 -84 -22 -98 -48 -34 -109 -9 -124 49 -22 87 27 173 89 161 17 -3 36
-11 44 -17z"/>
</g>
</svg>
