<?xml version="1.0" standalone="no"?>
<!DOCTYPE svg PUBLIC "-//W3C//DTD SVG 20010904//EN"
 "http://www.w3.org/TR/2001/REC-SVG-20010904/DTD/svg10.dtd">
<svg version="1.0" xmlns="http://www.w3.org/2000/svg"
 width="2255.000000pt" height="2255.000000pt" viewBox="0 0 2255.000000 2255.000000"
 preserveAspectRatio="xMidYMid meet">

<g transform="translate(0.000000,2255.000000) scale(0.100000,-0.100000)"
fill="#000000" stroke="none">
<path d="M6710 13958 c0 -2149 4 -3583 10 -3693 31 -567 138 -1138 310 -1655
49 -147 75 -213 157 -410 53 -128 223 -464 281 -558 29 -46 52 -86 52 -88 0
-10 179 -273 261 -384 143 -193 285 -357 469 -541 152 -153 203 -200 330 -310
62 -53 263 -211 345 -270 165 -120 292 -202 565 -364 87 -52 355 -188 480
-244 63 -29 133 -60 155 -71 70 -33 220 -93 410 -165 97 -37 477 -162 550
-181 33 -9 89 -25 124 -36 73 -24 105 -21 231 17 47 14 130 39 185 56 572 172
1232 466 1675 744 662 418 1167 884 1570 1451 53 74 217 327 250 384 301 529
504 1070 630 1685 32 160 89 555 100 704 6 75 13 156 17 181 3 25 8 1668 10
3653 l4 3607 -4586 0 -4585 0 0 -3512z m8820 -175 c0 -2850 -2 -3367 -15
-3533 -16 -217 -40 -455 -54 -539 -40 -238 -57 -325 -87 -461 -36 -160 -50
-213 -110 -410 -62 -205 -139 -407 -232 -610 -69 -150 -208 -414 -270 -510
-109 -171 -245 -365 -312 -446 -14 -17 -41 -50 -60 -74 -171 -213 -499 -537
-705 -695 -21 -16 -52 -41 -69 -55 -66 -54 -261 -193 -371 -265 -239 -155
-532 -316 -785 -430 -69 -31 -147 -67 -175 -80 -116 -53 -365 -147 -580 -220
-411 -137 -404 -136 -560 -86 -55 18 -149 49 -210 68 -113 36 -224 76 -330
118 -33 13 -113 44 -177 69 -228 89 -527 235 -823 401 -131 73 -353 218 -513
334 -255 185 -583 482 -768 695 -32 37 -70 81 -84 96 -67 75 -207 260 -292
385 -440 651 -698 1344 -822 2205 -68 473 -66 356 -66 4054 l0 3326 4235 0
4235 0 0 -3337z"/>
<path d="M13967 16719 c-530 -44 -1006 -339 -1232 -764 -51 -97 -103 -252
-121 -365 -21 -127 -21 -393 0 -525 41 -255 153 -475 330 -651 89 -89 113
-107 240 -188 149 -94 296 -151 511 -200 115 -26 230 -36 403 -36 271 0 496
34 682 102 115 42 130 50 136 77 4 14 21 78 39 141 51 180 50 167 15 175 -24
5 -46 -3 -127 -53 -263 -160 -417 -213 -623 -215 -239 -1 -432 83 -615 268
-154 155 -266 357 -322 582 -24 97 -27 126 -27 283 -1 166 1 182 33 305 55
214 151 390 300 548 209 220 459 314 736 278 101 -14 235 -62 310 -111 73 -49
171 -136 202 -181 23 -32 33 -39 57 -37 27 3 29 7 52 98 29 112 64 269 64 285
0 13 -26 24 -180 77 -294 101 -551 133 -863 107z"/>
<path d="M7570 15688 c0 -599 4 -1021 10 -1063 6 -42 23 -95 42 -133 115 -229
472 -425 898 -493 103 -17 458 -17 535 0 249 54 426 145 594 305 72 70 153
167 180 216 38 70 61 122 87 195 l29 80 3 943 2 942 -177 0 -178 0 -1 -948 c0
-1053 2 -1009 -68 -1129 -87 -148 -242 -264 -435 -325 -89 -28 -108 -30 -251
-31 -144 -1 -161 1 -237 27 -199 67 -347 231 -406 450 -21 80 -21 93 -24 1019
l-4 937 -299 0 -300 0 0 -992z"/>
<path d="M10320 15359 l0 -1320 693 4 c739 4 709 2 857 55 252 89 452 282 528
509 22 66 26 97 26 203 1 119 -1 129 -30 197 -36 82 -60 116 -124 178 -156
151 -370 234 -635 247 -36 2 -51 7 -53 19 -2 12 14 18 79 28 132 20 276 77
404 160 172 111 251 212 285 363 14 61 3 155 -27 238 -60 164 -250 325 -470
399 -108 36 -206 41 -880 41 l-653 0 0 -1321z m992 1068 c191 -61 315 -203
326 -373 9 -150 -38 -278 -146 -395 -107 -115 -192 -142 -442 -137 l-145 3 -3
455 c-1 250 0 461 3 469 4 11 35 13 168 8 136 -4 174 -9 239 -30z m88 -1164
c211 -105 328 -366 276 -613 -31 -145 -127 -282 -247 -356 -91 -55 -138 -64
-346 -64 l-183 0 0 536 0 535 218 -3 218 -3 64 -32z"/>
<path d="M8595 13679 c-125 -13 -272 -52 -456 -120 -191 -71 -313 -106 -399
-114 -36 -3 -89 -8 -117 -11 l-53 -5 0 -295 0 -294 46 0 c136 0 325 43 499
115 127 52 264 93 392 116 178 33 448 31 633 -4 126 -25 179 -41 464 -147 138
-50 237 -70 396 -77 208 -9 382 24 610 117 113 46 259 89 375 111 97 18 156
22 305 22 285 0 389 -22 794 -172 136 -51 235 -70 396 -78 165 -7 322 15 474
66 62 21 122 43 133 49 51 28 269 93 378 113 96 18 156 22 305 23 279 0 400
-26 770 -165 47 -17 115 -40 151 -49 79 -22 288 -46 312 -37 15 6 17 34 17
296 l0 290 -52 5 c-29 3 -82 8 -118 11 -63 6 -265 56 -299 74 -39 21 -244 93
-331 116 -137 36 -214 46 -400 50 -207 4 -323 -8 -474 -47 -103 -26 -300 -94
-347 -119 -9 -5 -67 -22 -128 -39 -220 -60 -452 -60 -673 1 -61 16 -118 33
-127 38 -77 41 -378 135 -487 151 -99 15 -392 20 -504 9 -128 -13 -306 -61
-473 -125 -419 -163 -682 -161 -1132 9 -134 51 -278 92 -375 107 -89 15 -396
20 -505 9z"/>
<path d="M8670 12679 c-129 -7 -172 -14 -307 -48 -75 -19 -224 -71 -307 -106
-103 -44 -260 -79 -403 -91 l-83 -7 0 -293 0 -294 63 0 c102 0 274 36 408 85
334 124 405 142 651 165 85 8 150 8 240 0 238 -21 311 -40 666 -168 120 -44
320 -88 334 -74 4 4 -1 71 -11 148 -10 76 -27 208 -37 292 -10 90 -22 155 -28
156 -162 39 -221 56 -321 94 -66 24 -127 48 -135 52 -30 16 -247 69 -325 79
-108 14 -254 17 -405 10z"/>
<path d="M13625 12679 c-158 -9 -328 -48 -500 -115 -136 -52 -252 -89 -340
-108 l-60 -13 -8 -49 c-4 -27 -18 -141 -31 -254 -14 -113 -28 -224 -31 -246
-4 -23 -3 -44 2 -47 19 -12 195 27 318 70 332 117 381 132 472 147 191 31 310
38 448 26 176 -15 309 -42 440 -88 61 -21 169 -60 240 -85 141 -49 298 -80
385 -75 l55 3 3 291 2 291 -92 8 c-155 11 -280 44 -503 130 -157 60 -335 104
-454 110 -53 3 -123 7 -156 9 -33 2 -118 0 -190 -5z"/>
<path d="M11040 12673 c-54 -6 -276 -61 -318 -79 -196 -82 -394 -141 -521
-154 -52 -6 -96 -11 -97 -13 -3 -3 40 -124 86 -242 17 -44 46 -120 64 -170 56
-150 53 -145 83 -145 16 0 87 21 158 47 307 109 379 132 472 148 53 9 98 17
99 18 0 1 13 124 28 272 14 149 28 282 30 298 3 29 1 30 -84 20z"/>
<path d="M11290 12669 c0 -8 -5 -52 -10 -99 -5 -47 -17 -168 -25 -270 -8 -102
-22 -246 -30 -320 -8 -74 -21 -220 -30 -325 -9 -104 -20 -233 -25 -285 -5 -52
-17 -171 -25 -265 -9 -93 -25 -264 -36 -380 -11 -115 -31 -338 -44 -495 -14
-157 -29 -319 -35 -360 -5 -41 -12 -113 -16 -159 l-7 -85 -18 40 c-10 21 -40
100 -68 175 -27 74 -62 167 -76 205 -14 38 -35 92 -45 119 -10 28 -34 91 -53
140 -19 50 -58 153 -87 230 -28 77 -69 187 -91 245 -22 58 -62 166 -90 240
-27 74 -56 151 -64 170 -8 19 -37 96 -64 170 -27 74 -54 146 -60 160 -6 14
-47 124 -91 245 -89 242 -118 312 -119 279 -1 -11 8 -83 18 -160 11 -76 27
-204 36 -284 8 -80 22 -185 30 -235 8 -49 21 -155 30 -235 17 -159 23 -203 30
-240 3 -14 19 -137 35 -275 16 -137 34 -284 40 -325 6 -41 15 -115 20 -165 5
-49 21 -175 35 -280 44 -331 64 -500 59 -504 -6 -6 -4 -10 -130 209 -64 113
-133 232 -152 265 -19 33 -59 103 -89 155 -30 52 -58 102 -63 110 -12 19 -202
349 -262 455 -25 44 -87 152 -138 240 -51 88 -107 185 -123 215 -17 30 -38 67
-49 82 -10 14 -18 28 -18 31 0 2 -23 44 -52 93 -28 49 -76 132 -105 184 -55
95 -83 135 -69 95 4 -11 17 -54 28 -95 11 -41 40 -145 65 -230 25 -85 58 -204
75 -265 42 -152 81 -290 118 -420 17 -60 44 -157 60 -215 17 -58 41 -143 54
-190 104 -366 102 -359 189 -670 20 -69 61 -214 92 -323 31 -109 55 -202 53
-208 -3 -10 -33 21 -313 326 -70 77 -158 172 -194 211 -36 38 -106 115 -156
169 -93 102 -155 169 -267 290 -35 39 -127 138 -203 220 -175 191 -229 249
-339 368 -49 53 -91 95 -93 93 -3 -2 9 -33 25 -68 17 -34 60 -130 96 -213 37
-82 75 -168 86 -190 23 -48 139 -307 227 -505 35 -80 72 -163 83 -185 10 -22
53 -116 95 -210 42 -93 84 -188 95 -210 10 -22 37 -83 60 -135 23 -52 50 -113
60 -135 42 -90 120 -265 120 -270 0 -7 -95 57 -172 116 -31 24 -82 62 -113 84
-32 22 -72 51 -90 65 -19 14 -93 69 -167 123 -73 53 -199 145 -279 205 -81 59
-193 141 -250 182 -56 41 -139 102 -183 135 -45 33 -91 67 -102 75 -81 57
-110 78 -199 144 -55 41 -102 72 -104 70 -5 -4 25 -73 96 -224 30 -63 80 -169
111 -235 56 -119 334 -676 352 -705 5 -8 41 -73 81 -145 233 -420 493 -775
784 -1074 331 -340 631 -564 1094 -818 74 -40 136 -73 137 -73 2 0 54 -24 116
-54 284 -135 826 -338 903 -338 52 0 451 142 734 261 87 37 413 197 491 241
412 235 704 456 996 754 82 83 160 165 174 181 402 476 666 914 1070 1770 23
50 62 131 85 180 83 176 135 288 135 292 0 3 -17 -8 -37 -24 -21 -16 -49 -36
-63 -45 -27 -18 -235 -171 -260 -191 -8 -7 -90 -66 -181 -133 -91 -66 -196
-143 -232 -170 -37 -27 -109 -79 -160 -116 -50 -37 -108 -79 -127 -94 -34 -25
-206 -151 -245 -180 -11 -7 -74 -54 -140 -102 -210 -154 -225 -164 -225 -154
0 5 18 49 41 98 70 151 75 164 162 359 46 105 108 242 136 305 29 63 61 133
71 155 10 22 48 108 85 190 37 83 77 173 90 200 12 28 44 97 70 155 26 58 55
123 65 145 10 22 50 112 90 200 39 88 80 178 90 200 10 22 26 58 34 80 16 40
15 39 -51 -30 -38 -39 -214 -230 -393 -425 -179 -195 -355 -386 -391 -424 -36
-39 -119 -129 -184 -201 -65 -71 -142 -155 -171 -185 -28 -30 -123 -133 -209
-228 -87 -94 -160 -170 -162 -169 -2 2 9 44 23 93 26 89 49 168 104 364 16 58
43 155 60 215 32 111 81 287 125 445 27 99 54 195 95 335 63 216 133 464 151
535 11 41 28 102 39 135 10 33 35 121 55 195 21 74 48 173 62 220 13 47 27 94
29 105 6 21 -24 -22 -61 -90 -12 -22 -38 -67 -57 -100 -61 -105 -229 -396
-288 -500 -31 -55 -83 -145 -115 -200 -32 -55 -74 -127 -92 -160 -57 -100
-144 -251 -248 -430 -100 -173 -158 -274 -196 -342 -58 -104 -74 -131 -94
-163 -12 -19 -39 -66 -60 -103 -20 -38 -39 -66 -41 -64 -3 3 9 114 26 248 17
134 42 334 55 444 14 110 29 234 35 275 6 41 15 118 21 170 5 52 21 178 34
280 35 264 62 474 90 715 14 116 30 237 35 270 18 116 41 337 36 343 -3 3 -6
0 -6 -7 0 -7 -11 -40 -24 -74 -14 -34 -75 -197 -136 -362 -61 -165 -115 -311
-121 -325 -6 -14 -33 -86 -60 -160 -27 -74 -56 -151 -64 -170 -13 -33 -51
-132 -131 -345 -18 -49 -54 -146 -80 -215 -61 -162 -84 -224 -127 -340 -20
-52 -52 -138 -72 -190 -20 -52 -47 -125 -60 -162 -36 -104 -42 -109 -49 -52
-3 27 -11 108 -16 179 -6 72 -15 168 -21 215 -5 47 -23 236 -39 420 -30 333
-47 522 -76 820 -8 85 -26 283 -39 440 -14 157 -32 348 -40 425 -8 77 -22 221
-30 319 -8 99 -17 182 -20 184 -3 3 -5 -1 -5 -9z"/>
<path d="M11464 12648 c7 -40 33 -300 41 -423 10 -153 1 -139 116 -160 95 -16
158 -36 477 -149 158 -56 179 -56 199 -1 8 22 27 74 43 115 16 41 52 138 80
215 28 76 56 148 62 158 5 10 8 20 6 23 -2 2 -47 8 -99 14 -139 16 -297 62
-509 150 -78 32 -337 90 -404 90 -15 0 -17 -5 -12 -32z"/>
<path d="M8575 11673 c-107 -13 -277 -58 -405 -108 -203 -79 -337 -115 -472
-127 l-128 -12 0 -292 c0 -206 3 -293 11 -296 18 -6 178 11 264 28 44 9 134
36 200 61 205 76 356 122 460 139 117 19 394 26 514 13 47 -5 86 -8 87 -6 1 1
-13 56 -33 122 -52 180 -114 403 -127 458 l-6 27 -168 -1 c-92 -1 -180 -4
-197 -6z"/>
<path d="M13647 11664 c-12 -40 -69 -243 -91 -324 -13 -47 -35 -125 -50 -174
-14 -49 -24 -91 -22 -93 2 -2 53 1 112 8 128 14 355 6 494 -16 86 -14 284 -70
335 -95 120 -57 325 -113 460 -125 39 -4 82 -8 97 -10 17 -2 29 2 32 12 3 8 6
142 6 297 l0 282 -127 11 c-135 12 -246 42 -488 132 -60 23 -166 55 -235 73
-113 28 -144 31 -321 36 -185 4 -196 3 -202 -14z"/>
<path d="M10895 11640 c-109 -26 -166 -45 -375 -124 -41 -15 -64 -29 -62 -38
4 -16 68 -190 87 -238 8 -19 33 -87 56 -150 23 -63 43 -116 43 -117 1 -1 49
14 106 33 58 19 132 41 165 47 l60 13 7 60 c3 33 14 150 22 259 9 110 19 219
22 243 4 23 2 42 -2 41 -5 0 -63 -13 -129 -29z"/>
<path d="M11564 11588 c12 -143 47 -502 51 -514 2 -6 24 -15 49 -18 25 -4 97
-25 161 -46 l115 -39 16 37 c18 42 64 165 100 267 14 39 36 98 49 132 14 34
25 68 25 75 0 8 -21 22 -47 30 -27 9 -97 35 -158 58 -87 32 -333 100 -362 100
-3 0 -3 -37 1 -82z"/>
<path d="M9270 11594 c13 -22 49 -84 80 -139 136 -241 234 -412 250 -435 10
-14 27 -43 38 -65 34 -64 36 -65 99 -80 122 -29 313 -49 326 -35 3 3 -3 61
-13 130 -10 69 -26 197 -36 285 -9 88 -20 163 -24 168 -4 4 -47 12 -96 17
-107 12 -217 43 -424 120 -85 32 -170 61 -189 65 l-34 7 23 -38z"/>
<path d="M13185 11583 c-324 -116 -366 -127 -537 -148 l-47 -6 -10 -52 c-6
-29 -20 -137 -31 -242 -12 -104 -26 -212 -31 -239 -6 -34 -6 -52 1 -56 20 -12
196 8 320 36 58 13 67 18 86 52 11 20 40 69 62 109 23 39 50 87 61 105 10 18
36 62 56 98 21 36 64 110 95 165 31 55 73 128 93 163 20 35 31 62 24 62 -7 0
-70 -21 -142 -47z"/>
</g>
</svg>
