<svg version="1.1" id="Layer_1" xmlns="http://www.w3.org/2000/svg" xmlns:xlink="http://www.w3.org/1999/xlink" x="0px" y="0px"
	 width="100%" viewBox="0 0 1024 1024" enable-background="new 0 0 1024 1024" xml:space="preserve">
<path fill="#000000" opacity="1.000000" stroke="none" 
	d="
M219.066345,407.905945 
	C197.677994,381.739166 189.206146,352.100983 191.474365,318.824615 
	C193.777771,285.031982 206.248657,255.852051 229.371155,231.341629 
	C250.340820,209.113235 276.414764,196.333984 306.522095,191.666077 
	C333.127625,187.541107 358.868622,191.262024 384.062836,200.201538 
	C392.997559,203.371780 401.996582,206.451035 411.469238,207.662308 
	C413.830353,207.964218 415.056061,208.927628 415.283264,211.364548 
	C416.996277,229.737106 419.225677,248.039948 423.006134,266.121033 
	C423.507751,268.520264 422.764282,269.711212 420.258575,270.408112 
	C410.339600,273.166687 410.067841,273.109253 406.399994,263.499512 
	C402.219727,252.547180 396.822998,242.306808 389.554382,233.023331 
	C377.324493,217.403229 361.033508,209.534103 341.698364,207.170563 
	C321.008606,204.641418 300.731537,205.258087 281.950348,215.719086 
	C258.346954,228.865982 243.196198,249.143799 235.197662,274.461029 
	C223.691696,310.880096 225.560898,346.624146 243.257172,381.027130 
	C258.473236,410.608459 281.043549,431.432983 314.288269,438.013031 
	C339.239868,442.951599 363.680206,441.109131 385.825867,426.501617 
	C390.101868,423.681152 392.087555,420.485962 391.970642,415.076630 
	C391.603546,398.089508 391.883392,381.089050 391.842957,364.093933 
	C391.814941,352.319153 388.819061,348.709442 377.218109,346.546112 
	C372.807526,345.723663 368.326752,345.284546 363.889679,344.595306 
	C359.021332,343.839142 357.503754,341.504333 357.971649,335.704407 
	C358.316437,331.430389 359.532104,328.474030 364.908478,328.852417 
	C383.532867,330.163116 402.198883,329.625122 420.850677,329.675781 
	C427.345581,329.693420 433.844513,329.762238 440.302673,328.926849 
	C444.258423,328.415192 446.170166,330.213898 446.747650,334.033386 
	C447.561310,339.414856 446.036285,343.407013 442.535553,344.476807 
	C428.483185,348.771088 426.908569,350.885254 426.898987,365.531830 
	C426.890808,378.028320 426.956635,390.525299 426.861084,403.021057 
	C426.824402,407.821625 427.329163,412.313934 430.891388,415.972931 
	C433.868195,419.030609 430.714203,420.390564 428.955719,421.784546 
	C415.936035,432.105347 401.748047,440.476349 385.942322,445.679871 
	C347.469879,458.345764 308.883209,459.844238 270.495514,445.385925 
	C250.095367,437.702423 233.370010,424.701355 219.066345,407.905945 
z"/>
<path fill="#000000" opacity="1.000000" stroke="none" 
	d="
M617.698669,796.391968 
	C615.456177,796.054382 613.658081,795.700867 611.844177,795.475281 
	C602.779968,794.348022 602.708374,794.373657 600.935547,785.403992 
	C597.834290,769.712708 596.345703,753.819824 595.069763,737.896729 
	C594.728455,733.637756 597.541626,732.702637 600.570312,732.312439 
	C604.072083,731.861328 608.150208,730.837341 609.589172,735.865906 
	C611.745422,743.400879 614.117188,750.846436 618.008240,757.711060 
	C629.277832,777.592957 647.050293,786.848999 669.178162,788.591125 
	C677.464600,789.243530 685.843018,789.295898 694.027649,787.264832 
	C710.157349,783.262207 720.677002,773.373657 724.817444,757.173157 
	C727.895508,745.129395 727.436646,733.179260 723.515869,721.281372 
	C718.718872,706.724548 707.935913,698.066589 695.029419,691.343445 
	C682.889099,685.019287 669.614685,681.380432 657.315002,675.413513 
	C643.767517,668.841187 630.634521,661.800293 620.594421,650.078491 
	C593.417664,618.349976 601.367371,571.303528 637.402161,550.113953 
	C654.665527,539.962524 673.286377,537.798950 692.799255,539.006714 
	C708.604553,539.984985 723.338806,545.461182 738.535950,548.998108 
	C740.516785,549.459106 741.741150,550.659607 742.120789,552.687378 
	C744.844177,567.235046 747.097961,581.844971 748.351562,596.605652 
	C748.698242,600.688354 747.347900,603.014038 743.116760,603.273743 
	C739.242615,603.511719 735.229309,605.717468 733.293030,599.287964 
	C728.868835,584.598083 722.653809,570.607544 708.951965,562.035217 
	C689.696106,549.987976 659.448059,547.388672 641.901917,572.919312 
	C629.489563,590.979980 632.315063,614.287781 649.165588,628.809875 
	C662.151001,640.000916 677.663452,646.498901 693.412109,652.522400 
	C709.322327,658.607727 724.724304,665.431885 738.140442,676.376587 
	C765.466980,698.669312 767.392822,738.232849 749.747375,765.084106 
	C729.092651,796.514465 698.919922,806.463562 662.916077,803.749023 
	C647.737732,802.604614 633.064209,798.847290 617.698669,796.391968 
z"/>
<path fill="#000000" opacity="1.000000" stroke="none" 
	d="
M534.861694,501.862427 
	C490.591431,545.042603 446.563629,587.965088 402.554626,630.906799 
	C359.619019,672.801147 316.717102,714.730042 273.769165,756.611755 
	C260.408569,769.640747 246.872589,782.490662 233.589081,795.597046 
	C230.736145,798.411987 228.961960,798.229248 226.338593,795.429932 
	C218.597961,787.170044 218.990265,789.445068 226.287460,782.319702 
	C294.244415,715.963379 362.260468,649.667542 430.262207,583.357117 
	C483.113068,531.820740 535.969727,480.290253 588.820496,428.753754 
	C643.341675,375.588379 697.858582,322.418640 752.377686,269.251160 
	C765.380737,256.570526 778.524231,244.029129 791.301025,231.124619 
	C794.957092,227.432053 797.268372,227.471634 800.442932,231.334183 
	C801.985352,233.210800 804.379822,234.387115 807.052551,236.374207 
	C715.569702,325.602783 625.341064,413.607971 534.861694,501.862427 
z"/>
</svg>