<?xml version="1.0" standalone="no"?>
<!DOCTYPE svg PUBLIC "-//W3C//DTD SVG 20010904//EN"
 "http://www.w3.org/TR/2001/REC-SVG-20010904/DTD/svg10.dtd">
<svg version="1.0" xmlns="http://www.w3.org/2000/svg"
 width="1026.000000pt" height="808.000000pt" viewBox="0 0 1026.000000 808.000000"
 preserveAspectRatio="xMidYMid meet">

<g transform="translate(0.000000,808.000000) scale(0.100000,-0.100000)"
fill="#000000" stroke="none">
<path d="M8887 6759 c7 -7 15 -10 18 -7 3 3 -2 9 -12 12 -14 6 -15 5 -6 -5z"/>
<path d="M8887 6439 c7 -7 15 -10 18 -7 3 3 -2 9 -12 12 -14 6 -15 5 -6 -5z"/>
<path d="M3465 6270 c-3 -6 -52 -10 -110 -10 -58 0 -107 -4 -110 -10 -3 -5
-26 -10 -50 -10 -24 0 -47 -4 -50 -10 -3 -5 -17 -10 -30 -10 -13 0 -27 -4 -30
-10 -3 -5 -17 -10 -30 -10 -13 0 -27 -4 -30 -10 -3 -5 -14 -10 -24 -10 -22 0
-116 -47 -131 -65 -7 -8 -18 -15 -24 -15 -6 0 -47 -37 -92 -83 -61 -62 -90
-102 -122 -167 -23 -47 -42 -93 -42 -102 0 -9 -4 -20 -10 -23 -5 -3 -10 -21
-10 -40 0 -19 -4 -37 -10 -40 -14 -8 -14 -402 0 -410 6 -3 10 -17 10 -30 0
-13 5 -27 10 -30 6 -3 10 -17 10 -30 0 -13 5 -27 10 -30 6 -3 10 -17 10 -31 0
-13 4 -24 8 -24 5 0 20 -21 33 -47 13 -27 36 -61 51 -78 16 -16 28 -33 28 -38
0 -10 127 -137 137 -137 5 0 27 -18 51 -40 23 -22 46 -40 50 -40 5 0 17 -8 28
-17 10 -10 31 -24 47 -32 15 -8 27 -18 27 -23 0 -4 6 -8 13 -8 7 0 22 -8 33
-18 10 -10 45 -30 77 -46 31 -15 63 -33 70 -40 6 -6 29 -20 49 -29 20 -10 43
-23 50 -30 7 -7 34 -23 61 -36 26 -13 47 -28 47 -33 0 -4 6 -8 13 -8 7 0 22
-8 33 -17 10 -10 31 -24 47 -32 15 -8 27 -18 27 -23 0 -4 6 -8 14 -8 15 0 166
-145 166 -161 0 -5 9 -19 20 -31 11 -12 20 -32 20 -45 0 -13 5 -23 10 -23 6 0
10 -13 10 -29 0 -17 5 -33 10 -36 6 -3 10 -33 10 -65 0 -32 -4 -62 -10 -65 -5
-3 -10 -21 -10 -40 0 -19 -4 -37 -10 -40 -5 -3 -10 -16 -10 -28 0 -45 -129
-157 -180 -157 -10 0 -22 -4 -25 -10 -3 -6 -50 -10 -105 -10 -55 0 -102 4
-105 10 -3 6 -21 10 -40 10 -19 0 -37 5 -40 10 -3 6 -15 10 -26 10 -10 0 -19
3 -19 8 0 4 -10 12 -22 17 -12 6 -26 19 -32 30 -6 11 -19 27 -28 36 -10 9 -18
23 -18 32 0 9 -4 19 -10 22 -5 3 -10 17 -10 30 0 13 -4 27 -10 30 -5 3 -10 30
-10 60 0 30 -4 57 -10 60 -5 3 -10 44 -10 91 l0 84 -310 0 -310 0 0 -119 c0
-69 4 -122 10 -126 6 -3 10 -35 10 -70 0 -35 5 -67 10 -70 6 -3 10 -21 10 -40
0 -19 5 -37 10 -40 6 -3 10 -14 10 -24 0 -22 58 -138 83 -165 9 -11 17 -24 17
-28 0 -18 127 -134 173 -157 26 -13 47 -28 47 -33 0 -4 11 -8 24 -8 14 0 28
-4 31 -10 3 -5 17 -10 30 -10 13 0 27 -4 30 -10 8 -14 942 -14 950 0 3 6 17
10 30 10 13 0 27 5 30 10 3 5 17 10 31 10 13 0 24 5 24 10 0 6 9 10 20 10 11
0 20 4 20 8 0 5 21 20 47 33 45 23 173 139 173 157 0 4 8 17 18 28 21 24 82
142 82 160 0 8 5 14 10 14 6 0 10 15 10 34 0 19 5 38 10 41 6 3 10 26 10 50 0
24 5 47 10 50 6 4 10 63 10 145 0 82 -4 141 -10 145 -5 3 -10 30 -10 60 0 30
-4 57 -10 60 -5 3 -10 17 -10 30 0 13 -4 27 -10 30 -5 3 -10 17 -10 31 0 13
-4 24 -10 24 -5 0 -10 7 -10 15 0 18 -18 51 -42 79 -10 11 -18 26 -18 33 0 7
-4 13 -8 13 -5 0 -15 12 -23 27 -15 29 -153 173 -166 173 -5 0 -21 12 -38 28
-16 15 -42 33 -57 41 -16 8 -28 18 -28 23 0 4 -6 8 -13 8 -7 0 -22 8 -33 18
-10 10 -36 25 -56 35 -20 10 -43 23 -50 30 -7 7 -48 30 -91 51 -43 21 -83 43
-90 50 -7 6 -51 31 -99 55 -49 24 -88 48 -88 52 0 5 -6 9 -13 9 -7 0 -23 9
-35 20 -12 11 -25 20 -30 20 -5 0 -27 17 -49 38 -22 20 -48 42 -58 48 -10 6
-23 19 -29 30 -6 10 -18 26 -27 34 -24 22 -59 87 -59 110 0 10 -4 22 -10 25
-6 4 -10 53 -10 115 0 62 4 111 10 115 6 3 10 15 10 26 0 10 5 19 10 19 6 0
10 9 10 20 0 11 3 20 8 20 4 0 12 10 17 22 6 12 19 26 30 32 11 6 22 14 25 17
14 18 84 49 110 49 16 0 32 5 35 10 3 6 37 10 75 10 38 0 72 -4 75 -10 3 -5
17 -10 30 -10 13 0 27 -4 30 -10 3 -5 15 -10 26 -10 10 0 19 -3 19 -8 0 -4 10
-12 23 -17 12 -6 26 -20 32 -32 5 -13 13 -23 17 -23 5 0 8 -9 8 -20 0 -11 5
-20 10 -20 6 0 10 -9 10 -19 0 -11 5 -23 10 -26 6 -3 10 -21 10 -40 0 -19 5
-37 10 -40 6 -3 10 -44 10 -91 l0 -84 300 0 300 0 0 139 c0 83 -4 142 -10 146
-5 3 -10 26 -10 50 0 24 -4 47 -10 50 -5 3 -10 17 -10 30 0 13 -4 27 -10 30
-5 3 -10 17 -10 31 0 13 -4 24 -10 24 -5 0 -10 9 -10 20 0 11 -4 20 -8 20 -5
0 -15 12 -23 28 -8 15 -31 45 -51 67 -21 22 -38 46 -38 53 0 6 -6 12 -12 12
-7 0 -27 14 -45 30 -18 17 -39 30 -47 30 -8 0 -16 3 -18 8 -5 12 -88 52 -108
52 -11 0 -22 5 -25 10 -3 6 -17 10 -30 10 -13 0 -27 5 -30 10 -3 6 -21 10 -40
10 -19 0 -37 5 -40 10 -3 6 -52 10 -110 10 -58 0 -107 4 -110 10 -3 6 -37 10
-75 10 -38 0 -72 -4 -75 -10z"/>
<path d="M5545 6270 c-3 -5 -35 -10 -70 -10 -35 0 -67 -4 -70 -10 -3 -5 -21
-10 -40 -10 -19 0 -37 -4 -40 -10 -3 -5 -17 -10 -30 -10 -13 0 -27 -4 -30 -10
-3 -5 -14 -10 -24 -10 -22 0 -138 -58 -165 -82 -11 -10 -25 -18 -30 -18 -16 0
-189 -180 -206 -212 -7 -16 -17 -28 -22 -28 -4 0 -8 -9 -8 -20 0 -11 -3 -20
-7 -20 -9 0 -33 -49 -33 -67 0 -7 -4 -13 -10 -13 -5 0 -10 -11 -10 -24 0 -14
-4 -28 -10 -31 -5 -3 -10 -17 -10 -30 0 -13 -4 -27 -10 -30 -5 -3 -10 -17 -10
-30 0 -13 -4 -27 -10 -30 -5 -3 -10 -26 -10 -50 0 -24 -4 -47 -10 -50 -5 -3
-10 -30 -10 -60 0 -30 -4 -57 -10 -60 -6 -3 -10 -52 -10 -110 0 -58 -4 -107
-10 -110 -6 -4 -10 -153 -10 -415 0 -262 4 -411 10 -415 6 -4 10 -58 10 -130
0 -72 4 -126 10 -130 6 -3 10 -35 10 -70 0 -35 5 -67 10 -70 6 -3 10 -26 10
-50 0 -24 5 -47 10 -50 6 -3 10 -17 10 -30 0 -13 5 -27 10 -30 6 -3 10 -19 10
-35 0 -16 9 -45 20 -65 11 -20 20 -44 20 -55 0 -11 5 -20 10 -20 6 0 10 -9 10
-20 0 -11 4 -20 8 -20 5 0 15 -12 23 -27 8 -16 26 -41 41 -58 16 -16 28 -34
28 -38 0 -10 47 -57 57 -57 4 0 22 -12 38 -28 17 -15 42 -33 58 -41 15 -8 27
-18 27 -23 0 -4 9 -8 20 -8 11 0 20 -4 20 -10 0 -5 9 -10 20 -10 11 0 35 -9
55 -20 20 -11 49 -20 65 -20 16 0 32 -4 35 -10 9 -14 1161 -14 1170 0 3 6 35
10 70 10 35 0 67 5 70 10 3 5 26 10 51 10 l44 0 0 770 0 770 -480 0 -480 0 0
-220 0 -220 170 0 170 0 0 -360 c0 -350 -1 -360 -19 -360 -11 0 -23 -4 -26
-10 -3 -5 -21 -10 -40 -10 -19 0 -37 -4 -40 -10 -3 -5 -30 -10 -60 -10 -30 0
-57 -4 -60 -10 -3 -6 -50 -10 -105 -10 -55 0 -102 4 -105 10 -3 6 -21 10 -40
10 -19 0 -37 5 -40 10 -3 6 -15 10 -26 10 -10 0 -19 5 -19 10 0 6 -6 10 -13
10 -34 0 -147 170 -147 221 0 10 -4 21 -10 24 -5 3 -10 21 -10 40 0 19 -4 37
-10 40 -5 3 -10 39 -10 80 0 41 -4 77 -10 80 -6 4 -10 68 -10 160 0 92 -4 156
-10 160 -6 4 -10 130 -10 345 0 215 4 341 10 345 6 4 10 58 10 130 0 72 4 126
10 130 6 3 10 30 10 60 0 30 5 57 10 60 6 3 10 21 10 40 0 19 5 37 10 40 6 3
10 14 10 24 0 23 60 141 72 141 4 0 8 6 8 13 0 14 51 67 63 67 5 0 17 9 29 20
12 11 32 20 44 20 13 0 26 5 29 10 4 6 53 10 115 10 62 0 111 -4 115 -10 3 -5
14 -10 25 -10 22 0 100 -40 100 -52 0 -4 7 -8 15 -8 9 0 19 -8 22 -17 4 -10
15 -27 25 -37 10 -11 18 -26 18 -33 0 -7 5 -13 10 -13 6 0 10 -9 10 -19 0 -11
5 -23 10 -26 6 -3 10 -21 10 -40 0 -19 5 -37 10 -40 6 -3 10 -46 10 -94 0 -49
6 -99 13 -114 l12 -27 298 0 297 0 0 119 c0 69 -4 122 -10 126 -5 3 -10 26
-10 50 0 24 -4 47 -10 50 -5 3 -10 17 -10 30 0 13 -4 27 -10 30 -5 3 -10 14
-10 23 0 26 -81 183 -112 217 -15 17 -28 34 -28 38 0 10 -47 57 -57 57 -5 0
-27 18 -51 40 -23 22 -48 40 -56 40 -8 0 -16 3 -18 8 -5 12 -129 72 -149 72
-10 0 -21 5 -24 10 -3 6 -17 10 -30 10 -13 0 -27 5 -30 10 -3 6 -21 10 -40 10
-19 0 -37 5 -40 10 -3 6 -35 10 -70 10 -35 0 -67 5 -70 10 -4 6 -67 10 -155
10 -88 0 -151 -4 -155 -10z"/>
<path d="M7845 6270 c-3 -6 -48 -10 -100 -10 -52 0 -97 -4 -100 -10 -3 -5 -26
-10 -50 -10 -24 0 -47 -4 -50 -10 -3 -5 -21 -10 -40 -10 -19 0 -37 -4 -40 -10
-3 -5 -17 -10 -30 -10 -13 0 -27 -4 -30 -10 -3 -5 -17 -10 -31 -10 -13 0 -24
-4 -24 -8 0 -5 -21 -20 -47 -33 -27 -13 -57 -32 -67 -41 -11 -10 -24 -18 -29
-18 -13 0 -130 -122 -146 -153 -8 -15 -18 -27 -23 -27 -4 0 -8 -9 -8 -20 0
-11 -3 -20 -7 -20 -11 0 -33 -50 -33 -71 0 -10 -4 -21 -10 -24 -5 -3 -10 -17
-10 -30 0 -13 -4 -27 -10 -30 -5 -3 -10 -26 -10 -50 0 -24 -4 -47 -10 -50 -6
-4 -10 -70 -10 -165 0 -95 4 -161 10 -165 6 -3 10 -21 10 -40 0 -19 5 -37 10
-40 6 -3 10 -17 10 -30 0 -13 5 -27 10 -30 6 -3 10 -14 10 -25 0 -22 38 -97
63 -124 9 -11 17 -24 17 -29 0 -14 242 -256 256 -257 5 0 19 -8 30 -17 10 -10
31 -24 47 -32 15 -8 27 -18 27 -23 0 -4 6 -8 13 -8 7 0 22 -8 33 -17 10 -10
31 -24 47 -32 15 -8 27 -18 27 -23 0 -4 9 -8 20 -8 11 0 20 -3 20 -8 0 -4 17
-15 39 -24 21 -9 45 -23 52 -30 8 -8 31 -22 51 -31 20 -10 43 -23 50 -30 7 -7
34 -23 61 -36 26 -13 47 -28 47 -33 0 -4 6 -8 13 -8 7 0 23 -9 35 -20 12 -11
25 -20 29 -20 4 0 22 -14 40 -30 18 -17 35 -30 39 -30 11 0 64 -52 64 -62 0
-4 14 -22 30 -40 17 -17 30 -37 30 -44 0 -8 5 -14 10 -14 6 0 10 -9 10 -20 0
-11 5 -20 10 -20 6 0 10 -9 10 -19 0 -11 5 -23 10 -26 6 -4 10 -53 10 -115 0
-62 -4 -111 -10 -115 -5 -3 -10 -15 -10 -26 0 -10 -4 -19 -10 -19 -5 0 -10 -9
-10 -20 0 -11 -4 -20 -10 -20 -5 0 -10 -5 -10 -12 0 -14 -50 -68 -62 -68 -5 0
-18 -9 -30 -20 -12 -11 -32 -20 -44 -20 -13 0 -26 -4 -29 -10 -4 -6 -57 -10
-125 -10 -68 0 -121 4 -125 10 -3 6 -15 10 -25 10 -44 0 -160 92 -160 127 0 7
-4 13 -10 13 -5 0 -10 9 -10 19 0 11 -4 23 -10 26 -5 3 -10 21 -10 40 0 19 -4
37 -10 40 -6 4 -10 58 -10 131 l0 124 -310 0 -310 0 0 -159 c0 -96 4 -162 10
-166 6 -3 10 -30 10 -60 0 -30 5 -57 10 -60 6 -3 10 -17 10 -30 0 -13 5 -27
10 -30 6 -3 10 -17 10 -31 0 -13 5 -24 10 -24 6 0 10 -9 10 -20 0 -11 4 -20 8
-20 5 0 20 -21 33 -47 23 -46 119 -153 137 -153 4 0 17 -8 28 -18 10 -9 57
-36 104 -60 l85 -42 472 0 c304 0 474 4 478 10 3 6 15 10 25 10 11 0 35 9 55
20 20 11 44 20 55 20 11 0 20 4 20 8 0 5 21 20 48 33 51 25 178 147 201 192 8
15 18 27 23 27 4 0 8 9 8 20 0 11 5 20 10 20 6 0 10 9 10 20 0 11 5 20 10 20
6 0 10 11 10 24 0 14 5 28 10 31 6 3 10 17 10 30 0 13 5 27 10 30 6 4 10 107
10 275 0 168 -4 271 -10 275 -5 3 -10 14 -10 23 0 21 -79 180 -102 206 -10 11
-18 24 -18 29 0 12 -164 177 -176 177 -5 0 -28 18 -52 40 -23 22 -46 40 -50
40 -5 0 -17 8 -28 18 -10 10 -36 25 -56 35 -20 10 -43 23 -50 30 -7 7 -43 27
-80 46 -38 19 -68 38 -68 42 0 5 -9 9 -20 9 -11 0 -20 5 -20 10 0 6 -9 10 -19
10 -11 0 -21 4 -23 8 -1 4 -29 20 -61 36 -31 15 -63 33 -70 39 -6 7 -33 23
-59 36 -27 13 -48 28 -48 33 0 4 -6 8 -14 8 -18 0 -186 167 -186 185 0 8 -4
15 -10 15 -5 0 -10 9 -10 19 0 11 -4 23 -10 26 -5 3 -10 17 -10 30 0 13 -4 27
-10 30 -5 3 -10 46 -10 95 0 49 5 92 10 95 6 3 10 15 10 25 0 41 91 160 122
160 5 0 18 9 30 20 13 12 36 20 54 20 18 0 36 5 39 10 3 6 37 10 75 10 38 0
72 -4 75 -10 3 -5 19 -10 35 -10 72 0 190 -113 190 -181 0 -10 5 -21 10 -24 6
-3 10 -17 10 -30 0 -13 5 -27 10 -30 6 -3 10 -44 10 -91 l0 -84 300 0 300 0 0
149 c0 89 -4 152 -10 156 -5 3 -10 21 -10 40 0 19 -4 37 -10 40 -5 3 -10 14
-10 23 0 9 -19 55 -42 102 -31 63 -61 104 -114 158 -39 39 -76 72 -81 72 -5 0
-18 8 -29 18 -27 24 -102 62 -124 62 -11 0 -22 5 -25 10 -3 6 -17 10 -30 10
-13 0 -27 5 -30 10 -3 6 -26 10 -50 10 -24 0 -47 5 -50 10 -3 6 -52 10 -110
10 -58 0 -107 4 -110 10 -3 6 -37 10 -75 10 -38 0 -72 -4 -75 -10z"/>
<path d="M8887 6119 c7 -7 15 -10 18 -7 3 3 -2 9 -12 12 -14 6 -15 5 -6 -5z"/>
<path d="M8887 5799 c7 -7 15 -10 18 -7 3 3 -2 9 -12 12 -14 6 -15 5 -6 -5z"/>
<path d="M8887 5479 c7 -7 15 -10 18 -7 3 3 -2 9 -12 12 -14 6 -15 5 -6 -5z"/>
<path d="M8887 5159 c7 -7 15 -10 18 -7 3 3 -2 9 -12 12 -14 6 -15 5 -6 -5z"/>
<path d="M8887 4839 c7 -7 15 -10 18 -7 3 3 -2 9 -12 12 -14 6 -15 5 -6 -5z"/>
<path d="M8887 4519 c7 -7 15 -10 18 -7 3 3 -2 9 -12 12 -14 6 -15 5 -6 -5z"/>
<path d="M8887 4199 c7 -7 15 -10 18 -7 3 3 -2 9 -12 12 -14 6 -15 5 -6 -5z"/>
<path d="M8887 3879 c7 -7 15 -10 18 -7 3 3 -2 9 -12 12 -14 6 -15 5 -6 -5z"/>
<path d="M8887 3559 c7 -7 15 -10 18 -7 3 3 -2 9 -12 12 -14 6 -15 5 -6 -5z"/>
<path d="M8887 3239 c7 -7 15 -10 18 -7 3 3 -2 9 -12 12 -14 6 -15 5 -6 -5z"/>
<path d="M8887 2919 c7 -7 15 -10 18 -7 3 3 -2 9 -12 12 -14 6 -15 5 -6 -5z"/>
<path d="M8887 2599 c7 -7 15 -10 18 -7 3 3 -2 9 -12 12 -14 6 -15 5 -6 -5z"/>
</g>
</svg>
